<svg width="257" height="476" viewBox="0 0 257 476" fill="none" xmlns="http://www.w3.org/2000/svg">
<path d="M81.65 72.4522C80.613 74.9601 79.4211 75.3914 77.0327 74.3273C73.9638 72.9585 73.4758 70.1084 72.969 67.2395C71.2751 67.4974 70.9466 69.1146 69.8063 70.0943C69.4755 69.6496 69.2614 69.1292 69.1835 68.5806C69.1057 68.032 69.1665 67.4727 69.3606 66.9536C69.6655 65.9626 69.8792 64.9458 69.9987 63.916C70.1677 62.1862 69.6656 61.1597 67.5493 61.244C63.6076 61.4034 60.323 57.2595 61.1582 53.3969C61.2036 52.9754 61.3886 52.5811 61.6838 52.2765C64.3913 50.439 65.1421 46.8482 67.2537 45.0435C70.1489 42.5778 71.5566 39.8121 72.7016 36.5167C73.1192 35.3213 74.2595 34.8666 75.517 35.3822C76.7746 35.8979 77.1875 35.6494 77.4644 34.1869C78.6938 27.6711 85.4087 22.3318 92.0109 22.374C95.3895 22.374 98.7398 22.2568 101.964 21.024C103.371 20.4896 104.643 21.6005 105.938 21.6662C117.613 22.2615 121.554 30.7227 124.816 39.948C125.642 42.2918 125.646 44.7575 127.321 47.0451C128.443 48.5733 127.791 51.5968 127.495 53.8985C127.321 55.2345 127.401 56.2423 128.236 57.208C129.959 59.2237 129.119 60.6628 127.171 61.83C124.389 63.4988 124.501 66.3301 123.84 69.0583C123.065 72.2928 122.718 75.832 120.555 78.5837C119.692 79.6853 118.209 79.9431 116.717 79.6946C114.837 79.3575 113.028 78.7045 111.367 77.7633C108.448 76.1648 108.402 76.1789 107.482 79.3009C107.145 80.3659 106.939 81.4677 106.867 82.5822C106.698 86.8246 107.496 87.3214 111.56 88.0762C115.708 88.8496 118.997 87.9496 122.352 85.437C128.227 81.0587 135.045 77.9368 139.78 72.0631C147.161 62.9175 156.945 56.2236 164.79 47.5795C170.187 41.6262 175.902 35.9026 180.313 29.1336C182.326 26.0444 184.475 22.8803 184.119 18.8629C184.088 18.4745 184.153 18.0846 184.308 17.7269C184.462 17.3691 184.702 17.0544 185.005 16.8098C186.516 15.4035 188.06 13.9972 189.501 12.4831C190.941 10.9689 192.659 10.5705 194.662 10.7158C195.287 10.7627 196.202 10.7955 196.492 10.0408C196.783 9.28607 195.958 9.05637 195.582 8.61105C193.738 6.40785 193.874 3.14524 195.882 1.33112C196.77 0.483401 197.948 0.00717361 199.176 0.000199754C200.404 -0.00677411 201.588 0.456034 202.485 1.29362C204.807 3.42181 205 6.21566 202.841 8.62511C201.682 9.91421 201.603 10.6642 203.311 11.569C207.158 13.6315 207.585 17.6067 208.364 21.3146C208.547 22.2006 207.759 22.8709 207.266 23.5881C205.647 25.9319 204.113 28.3461 202.485 30.6899C202.128 31.2751 201.964 31.957 202.015 32.64C201.837 39.9246 202.447 47.2139 201.8 54.4891C201.664 56.0032 202.597 56.1439 203.728 56.247C210.528 56.8705 217.064 58.3892 222.944 62.0316C225.891 63.8551 228.753 65.8192 231.686 67.6567C233.605 68.8662 235.374 70.0006 237.715 67.9427C239.395 66.4754 241.939 67.4739 242.727 69.3255C243.839 71.9647 243.121 74.6085 240.784 75.1242C238.738 75.5929 239.203 76.5305 239.761 77.6696C244.923 88.3527 249.371 99.3734 255.185 109.724C256.865 112.71 255.833 114.275 253.881 116.249C250.469 119.694 246.04 120.538 241.54 120.984C236.95 121.424 232.322 121.255 227.777 120.482C223.554 119.788 220.269 117.646 217.594 114.388C217.2 113.989 216.958 113.464 216.909 112.906C216.86 112.347 217.008 111.788 217.327 111.327C221.752 103.484 225.543 95.3186 229.447 87.2136C231.099 83.776 232.738 80.3384 234.365 76.9008C234.726 76.1367 235.332 75.2554 233.961 74.8476C229.968 73.671 226.923 71.0365 223.713 68.5427C218.65 64.6285 212.714 62.3784 206.398 61.2253C194.756 59.1111 184.165 61.9097 174.598 68.5193C171.393 70.7365 168.343 73.0616 164.589 74.2241C163.087 74.6929 163.603 75.5273 164.044 76.4273C166.175 80.7822 168.357 85.1136 170.407 89.5059C173.407 95.9342 176.351 102.384 179.238 108.857C181.533 113.98 181.266 113.952 176.512 117.336C173.49 119.488 170.191 120.149 166.803 120.44C162.14 120.913 157.435 120.781 152.806 120.046C149.183 119.446 146.129 117.819 143.332 115.616C140.939 113.741 140.953 112.452 142.295 109.888C145.758 103.255 149.193 96.5936 151.825 89.5434C148.892 91.6528 147.41 94.9201 145.195 97.5874C140.108 103.681 135.406 110.146 129.02 115.1C127.228 116.507 128.082 118.851 128.509 120.801C129.635 125.877 132.844 129.782 135.815 133.832C138.424 137.424 139.923 141.7 140.127 146.133C140.197 147.258 140.188 148.163 138.541 148.008C133.187 147.567 128.006 146.25 123.572 143.32C117.245 139.235 111.447 134.385 106.309 128.882C99.1387 121.044 93.6392 112.049 87.83 103.25C87.3607 102.542 87.1214 101.544 86.1594 101.375C85.0614 101.183 83.7616 100.93 82.9029 101.708C82.0442 102.486 82.9029 103.494 83.1704 104.347C87.2188 116.507 91.934 128.434 97.2946 140.076C101.18 148.411 105.68 156.361 110.203 164.34C115.313 173.349 121.658 181.417 127.946 189.578C132.844 195.939 138.518 201.466 144.411 206.824C145.134 207.48 145.608 208.014 145.411 209.205C144.275 216.101 144.88 223.038 145.143 229.962C145.397 236.525 145.612 243.13 145.842 249.711C145.871 250.475 145.941 251.267 145.303 252.022C142.487 249.678 140.38 246.795 138.353 243.936C132.356 235.475 126.519 226.878 121.883 217.573C116.097 205.956 111.073 193.976 106.844 181.707C102.644 169.519 98.2096 157.425 94.1741 145.2C89.5708 131.306 83.7851 117.88 78.3325 104.324C77.4503 102.13 75.4326 100.386 73.8841 98.4734C72.8752 97.2218 73.0066 96.5983 74.3533 95.417C79.5525 90.9403 82.2131 85.0151 83.1563 78.2977C83.4332 76.2726 84.5453 73.971 81.65 72.4522ZM170.14 64.0144C170.434 64.1307 170.752 64.1727 171.067 64.1367C171.381 64.1008 171.681 63.9879 171.942 63.8082C178.891 59.1754 186.978 56.5342 195.324 56.172C196.15 56.1345 196.591 55.7735 196.591 54.8969C196.591 48.8405 196.638 42.784 196.643 36.7276C196.643 35.4807 196.197 35.2229 195.075 35.9588C191.293 38.4339 187.713 41.2418 184.785 44.6122C180.246 49.8225 175.994 55.2761 172.05 60.9487C171.388 61.8862 170.806 62.9035 170.126 63.9957L170.14 64.0144ZM162.266 80.59L161.51 80.7306C161.632 90.3169 160.685 99.8937 161.51 109.489C161.632 110.896 162.562 110.858 163.542 110.858C167.099 110.858 170.661 110.816 174.218 110.858C176.005 110.891 176.672 110.422 175.733 108.622C174.734 106.705 173.856 104.717 172.918 102.767C169.361 95.3702 165.806 87.9715 162.252 80.5712L162.266 80.59ZM236.125 80.7212L235.487 80.5994L225.97 100.461C224.624 103.274 223.263 106.086 221.93 108.899C221.419 109.986 221.226 110.91 222.995 110.886C226.81 110.839 230.63 110.844 234.445 110.886C235.594 110.886 236.134 110.511 236.247 109.26C237.082 99.6969 236.308 90.2044 236.111 80.7025L236.125 80.7212ZM238.818 81.7853L238.096 81.9306V109.424C238.096 110.802 239.034 110.868 240.057 110.868H249.686C252.787 110.868 252.82 110.816 251.413 107.9C249.536 104.003 247.659 100.108 245.782 96.2139C243.442 91.3919 241.116 86.5761 238.804 81.7666L238.818 81.7853ZM158.92 82.2213C158.672 82.6104 158.517 82.8166 158.404 83.0463C154.2 91.681 149.998 100.316 145.8 108.95C145.157 110.258 145.448 110.882 146.978 110.868C150.361 110.835 153.744 110.755 157.123 110.868C159.023 110.943 159.662 110.399 159.633 108.407C159.535 100.606 159.633 92.8013 159.605 85.0011C159.587 84.1995 159.929 83.2854 158.906 82.2025L158.92 82.2213Z" fill="#111827"/>
<path d="M11.503 228.64C14.2105 222.823 16.8195 217.657 19.0484 212.332C24.257 199.872 29.2967 187.342 34.3785 174.831C37.4052 167.377 40.6946 160.036 43.8995 152.658C47.1044 145.28 47.874 137.268 49.1597 129.417C50.2202 122.929 50.8865 116.362 53.3031 110.169C55.8699 103.606 60.2197 99.0875 67.5165 97.9531C69.0462 97.7187 70.0785 97.9531 70.468 99.5656C70.489 99.6507 70.5274 99.7305 70.5806 99.8C74.846 105.894 73.1943 112.297 71.6364 118.733C67.8825 134.203 63.5279 149.494 57.6107 164.34C53.9647 173.452 49.2066 181.946 44.6362 190.562C40.7556 197.88 36.6591 205.094 33.1022 212.562C28.0062 223.31 24.6558 234.687 22.6099 246.402C22.1079 249.275 23.7549 254.244 21.0521 256.893C18.4478 258.997 11.6156 251.736 8.98314 245.033C6.74954 239.366 6.47738 232.69 11.503 228.64Z" fill="#111827"/>
<path d="M53.3313 348.002C54.3871 345.1 53.655 342.067 55.9778 339.827C57.5028 342.194 57.9017 344.763 58.3803 347.233C61.3788 362.787 64.1661 378.378 67.2302 393.918C69.7327 406.299 72.9477 418.526 76.8591 430.537C78.9144 436.96 80.6365 443.489 82.8748 449.86C84.3153 453.957 86.99 456.77 91.1757 458.035C93.3858 458.706 94.6809 460.285 95.3707 462.32C96.3092 465.039 98.4912 464.153 100.134 463.904C101.917 463.632 101.002 461.982 100.861 460.885C100.363 457.027 98.2002 454.027 95.793 451.144C91.2226 445.674 88.4165 437.799 88.7168 431.231C95.6147 438.586 103.967 443.71 112.841 448.036C119.232 451.154 126.083 453.221 132.549 456.137C139.944 459.479 148.034 461.19 154.96 465.564C157.306 467.026 159.277 468.737 160.154 471.456C160.699 473.134 160.398 473.992 158.32 474.006C137.673 474.128 117.026 474.295 96.3796 474.508C82.063 474.648 67.7558 474.85 53.4298 475.005C50.2108 475.042 49.3427 474.208 49.1503 470.922C48.7561 464.27 50.0888 457.796 51.5294 451.388C53.5236 442.608 56.0716 433.969 57.775 425.109C58.9804 419.164 59.0282 413.043 57.9158 407.08C57.1134 402.918 56.3063 398.788 56.3532 394.485C56.3109 394.485 52.1441 353.777 53.3313 348.002Z" fill="#111827"/>
<path d="M140.019 309.296C137.204 304.172 134.585 299.705 132.211 295.125C126.951 284.995 121.686 274.87 116.641 264.627C109.18 249.481 102.672 233.918 97.8436 217.718C93.2169 202.202 89.6178 186.418 86.1125 170.612C83.7945 160.144 81.2324 149.733 78.7595 139.298C78.6422 138.806 78.1917 138.337 78.5249 137.831C81.3873 133.467 80.3643 128.681 80.0593 123.97C79.9403 122.82 80.0004 121.66 80.2376 120.529C80.9274 122.788 81.6735 125.034 82.3023 127.317C87.5156 146.231 92.5505 165.207 97.9609 184.07C103.123 202.028 108.753 219.837 115.999 237.111C119.218 244.775 123.037 252.139 126.406 259.715C132.065 272.446 137.584 285.248 139.39 299.25C139.794 302.335 140.329 305.419 140.019 309.296Z" fill="#111827"/>
<path d="M75.2354 282.276C77.1828 287.433 79.1583 292.547 81.0822 297.694C86.3424 311.78 90.7486 326.186 96.8112 339.977C99.5328 346.178 103.029 351.944 106.454 357.762C111.846 366.921 118.959 374.708 125.787 382.756C133.478 391.822 142.21 399.768 150.999 407.718C151.321 408.122 151.593 408.563 151.811 409.031C150.051 409.148 149.334 407.727 148.151 407.268C138.872 403.625 130.026 398.965 121.775 393.374C113.563 387.852 106.839 380.792 100.631 373.25C89.9602 360.27 83.2688 345.316 79.163 329.078C75.2964 313.735 74.4752 298.144 75.2354 282.276Z" fill="#111827"/>
<path d="M84.1511 265.912C88.5995 273.192 94.2069 278.634 99.2701 284.531C101.625 287.194 103.243 290.426 103.962 293.906C105.215 300.155 108.345 305.4 112.376 310.346C117.861 317.077 124.994 321.882 131.357 327.573C136.683 332.336 140.653 338.017 144.078 344.167C144.411 344.758 145.017 345.513 144.618 346.071C144.031 346.872 143.168 346.16 142.487 345.916C135.561 343.459 129.536 339.639 124.046 334.665C119.02 330.137 113.971 325.693 109.772 320.359C107.289 317.209 105.497 313.679 103.615 310.168C101.119 305.518 98.3034 301.036 95.6381 296.47C91.6759 289.568 88.2361 282.379 85.3476 274.963C84.1372 272.11 83.7237 268.981 84.1511 265.912Z" fill="#111827"/>
<path d="M75.212 167.598C75.4888 170.129 75.8313 172.66 76.0237 175.201C76.8496 185.995 78.4825 196.713 80.9086 207.264C83.8789 220.137 88.9889 232.072 96.6704 242.863C98.6692 245.592 100.907 248.138 103.357 250.471C109.711 256.672 112.038 264.234 111.208 273.173C108.613 270.412 106.557 267.355 104.371 264.477C101.912 261.233 98.8289 258.768 95.8774 256.147C88.5103 249.608 83.4472 241.616 79.9232 232.512C74.4096 218.351 73.2458 203.566 73.5039 188.589C73.6071 182.701 74.0201 176.813 74.3251 170.93C74.3814 169.819 74.5738 168.718 74.7052 167.616L75.212 167.598Z" fill="#111827"/>
<path d="M74.4049 359.688C78.4686 369.335 83.5458 378.279 89.0218 386.994C93.6486 394.363 99.6549 400.588 105.656 406.855C115.858 417.496 128.649 424.261 141.319 431.231C143.515 432.431 145.345 434.189 147.668 435.211C148.878 435.741 148.423 437.016 148.381 438.024C148.132 444.118 148.109 444.155 142.722 441.469C137.912 439.078 132.952 436.908 128.391 434.105C117.486 427.406 106.337 420.825 98.3598 410.535C91.9968 402.341 86.5536 393.514 82.734 383.722C79.9983 376.69 77.2814 369.687 74.8507 362.562C74.5504 361.68 73.8747 360.874 74.4049 359.688Z" fill="#111827"/>
<path d="M150.915 388.494C148.715 382.526 144.875 377.3 139.836 373.414C135.547 370.048 130.92 367.104 126.697 363.654C118.431 356.989 111.724 348.599 107.045 339.072C109.007 339.789 110.189 341.12 111.621 342.034C113.15 343.009 114.638 344.059 116.102 345.138C121.812 349.356 127.744 353.294 132.76 358.343C139.545 365.168 145.964 372.298 149.493 381.5C150.359 383.734 150.84 386.099 150.915 388.494Z" fill="#111827"/>
<path d="M12.3992 229.948C12.3992 229.948 10.4049 227.829 5.95646 227.206L5.86261 227.496C5.75407 227.406 5.62782 227.339 5.49191 227.3C5.12653 227.169 4.72453 227.188 4.37313 227.353C4.02174 227.517 3.7493 227.813 3.61493 228.176C3.54677 228.416 3.54525 228.671 3.61054 228.912C3.67584 229.153 3.80549 229.372 3.98564 229.545L0.109693 238.85C-0.265701 239.68 0.442855 239.844 0.442855 239.844L1.71919 240.242L1.85058 240.284C2.73301 240.382 3.59361 240.623 4.39857 240.997L12.8027 245.853C13.1668 246.05 13.4856 246.32 13.7382 246.648C13.9908 246.975 14.1716 247.352 14.269 247.754C14.3663 248.156 14.378 248.574 14.3032 248.98C14.2285 249.387 14.069 249.773 13.835 250.114C13.835 250.114 10.6911 253.335 11.8924 260.427C11.8924 260.427 19.8695 261.332 17.345 269.437L14.6515 278.123L15.3835 278.662L14.3043 282.145L19.4284 283.73L18.9122 285.384C18.9122 285.384 20.5264 286.884 22.4973 286.561L22.9665 285.075C23.494 285.076 24.0064 284.899 24.421 284.573C24.8356 284.248 25.1283 283.792 25.2517 283.28C25.0653 282.989 24.8023 282.755 24.4915 282.604L24.6323 282.136L23.9988 281.939L31.1923 258.754L31.5724 258.871L35.012 247.789L36.4713 247.555L36.6637 246.922L35.575 245.961C35.575 245.961 36.0771 244.456 35.575 243.655C35.4981 243.511 35.452 243.352 35.4397 243.189C35.4273 243.026 35.4489 242.862 35.5032 242.708C35.5574 242.554 35.6431 242.412 35.7548 242.293C35.8666 242.174 36.0019 242.079 36.1522 242.014C36.5182 241.845 37.0907 240.42 34.9603 240.27C32.83 240.12 32.769 239.966 31.8821 239.253L30.404 237.983C30.404 237.983 28.8743 236.445 29.5969 235.231C29.5969 235.231 29.2262 233.74 28.1422 234.762C28.1422 234.762 25.6271 240.181 21.845 237.195L12.3992 229.948ZM35.5375 241.695C35.4681 241.689 35.401 241.667 35.3411 241.631C35.2813 241.595 35.2302 241.546 35.1915 241.488C35.1529 241.43 35.1276 241.365 35.1177 241.296C35.1077 241.227 35.1133 241.156 35.1339 241.09C35.1546 241.023 35.1898 240.962 35.2371 240.911C35.2844 240.86 35.3425 240.82 35.4072 240.794C35.472 240.768 35.5417 240.757 35.6113 240.761C35.6809 240.765 35.7487 240.785 35.8097 240.819C35.8719 240.833 35.9306 240.86 35.9821 240.897C36.0337 240.935 36.077 240.982 36.1095 241.037C36.142 241.092 36.163 241.153 36.1711 241.216C36.1793 241.279 36.1744 241.343 36.1569 241.405C36.1371 241.466 36.1049 241.522 36.0625 241.57C36.0201 241.618 35.9682 241.657 35.9102 241.684C35.8521 241.711 35.7891 241.726 35.725 241.728C35.6609 241.73 35.5971 241.719 35.5375 241.695ZM17.4811 248.863C18.6729 249.041 21.845 250.213 20.869 253.354L20.0525 253.977L18.4899 253.429C18.4899 253.429 14.1635 253.968 13.4456 256.063C13.4456 256.063 13.6849 256.635 13.9523 256.218C13.9523 256.218 16.7397 253.264 20.09 255.866L19.297 258.435C19.297 258.435 18.382 261.58 15.0175 260.558C15.0175 260.558 12.5212 259.954 12.4695 257.422C12.4273 255.346 12.7792 252.847 15.285 249.571C15.5781 249.313 15.9206 249.117 16.2916 248.996C16.6626 248.874 17.0545 248.829 17.4435 248.863H17.4811ZM5.34644 227.768C5.48127 227.81 5.60702 227.877 5.71714 227.965L5.21036 229.545C5.07571 229.552 4.94083 229.536 4.8115 229.498C4.68721 229.472 4.56965 229.421 4.46637 229.347C4.3631 229.274 4.27639 229.179 4.21181 229.07C4.14723 228.961 4.10622 228.84 4.09139 228.714C4.07656 228.588 4.08826 228.46 4.12572 228.339C4.16318 228.218 4.22558 228.106 4.30892 228.01C4.39226 227.915 4.49469 227.837 4.60964 227.784C4.72459 227.73 4.84952 227.701 4.97641 227.698C5.1033 227.696 5.22934 227.719 5.34644 227.768Z" fill="#111827"/>
</svg>
