<svg width="221" height="52" viewBox="0 0 221 52" fill="none" xmlns="http://www.w3.org/2000/svg">
<g clip-path="url(#clip0_81_38)">
<path d="M3.27865 10.9689L26.6125 23.762L22.461 32.6309L10.4921 30.752L1.23 24.7298L0 33.266L8.11436 47.7715L15.3559 48.7109L19.5355 52L24.5638 49.762L25.1918 45.6715L27.4873 46.2254L29.9192 44.0158L30.1379 25.9716L28.9902 23.762L34.8914 15.445L36.013 2.43078L27.2967 1.62931L24.0441 0L21.6945 1.32699L13.3333 1.35336L13.9072 5.52505L7.81539 10.0579L3.27865 10.9689Z" fill="#E2E8F0"/>
<path d="M6.05566 22.5364L7.93377 22.021L11.5756 24.3605L14.9646 21.3027L17.8781 21.9114L18.1329 24.2306L11.2847 27.124L6.05566 22.5364Z" fill="#E2E8F0"/>
<path d="M10.9576 21.607L11.4391 21.2195L11.6318 21.5705L11.995 21.4873L12.0953 21.9296L11.3489 22.3253L10.9576 21.607Z" fill="#E2E8F0"/>
<path d="M44.4095 27.4973L42.0662 39.7192H36.3109L42.3215 8.36963H53.9321C57.5688 8.36963 59.0728 10.0091 58.4441 13.2882L56.6629 22.5788C56.1421 25.2947 54.6195 26.8846 52.0951 27.3483L54.9781 39.7192H48.7724L46.3112 27.4973H44.4095ZM47.2385 12.7417L45.2191 23.2743H49.3729C49.9068 23.2743 50.2896 23.1915 50.5216 23.0259C50.7599 22.8272 50.9298 22.4628 51.0314 21.9329L52.5364 14.0831C52.638 13.5532 52.6046 13.2054 52.4362 13.0398C52.2741 12.841 51.9261 12.7417 51.3923 12.7417H47.2385Z" fill="#E2E8F0"/>
<path d="M64.4586 35.3471H74.0674L73.2292 39.7192H57.815L63.8256 8.36963H78.8394L78.0011 12.7417H68.7927L67.1257 21.4361H74.8828L74.0351 25.8578H66.278L64.4586 35.3471Z" fill="#E2E8F0"/>
<path d="M94.605 8.36963H100.51L88.2442 39.7192H80.6872L80.442 8.36963H86.3975L85.5932 33.7076L94.605 8.36963Z" fill="#E2E8F0"/>
<path d="M103.85 35.3471H113.459L112.621 39.7192H97.2067L103.217 8.36963H118.231L117.393 12.7417H108.184L106.517 21.4361H114.274L113.427 25.8578H105.67L103.85 35.3471Z" fill="#E2E8F0"/>
<path d="M134.147 8.36963H139.402L133.391 39.7192H127.986L125.212 18.952L121.23 39.7192H115.925L121.936 8.36963H127.491L130.222 28.8387L134.147 8.36963Z" fill="#E2E8F0"/>
<path d="M158.938 18.008H153.132L153.923 13.8844C154.025 13.3544 153.991 13.0066 153.823 12.841C153.661 12.6423 153.313 12.5429 152.779 12.5429H150.427C149.893 12.5429 149.507 12.6423 149.269 12.841C149.037 13.0066 148.87 13.3544 148.768 13.8844L144.863 34.2541C144.761 34.7841 144.792 35.1484 144.954 35.3471C145.122 35.5127 145.473 35.5955 146.007 35.5955H148.359C148.893 35.5955 149.276 35.5127 149.508 35.3471C149.746 35.1484 149.916 34.7841 150.018 34.2541L151.351 27.2986H148.849L149.62 23.2743H157.928L155.709 34.8503C155.08 38.1293 152.947 39.7689 149.311 39.7689H143.455C139.819 39.7689 138.315 38.1293 138.943 34.8503L143.077 13.2882C143.706 10.0091 145.839 8.36963 149.475 8.36963H155.331C158.967 8.36963 160.471 10.0091 159.843 13.2882L158.938 18.008Z" fill="#E2E8F0"/>
<path d="M165.723 35.3471H175.332L174.494 39.7192H159.08L165.09 8.36963H180.104L179.266 12.7417H170.058L168.391 21.4361H176.148L175.3 25.8578H167.543L165.723 35.3471Z" fill="#E2E8F0"/>
<path d="M185.897 27.4973L183.554 39.7192H177.798L183.809 8.36963H195.419C199.056 8.36963 200.56 10.0091 199.931 13.2882L198.15 22.5788C197.629 25.2947 196.107 26.8846 193.582 27.3483L196.465 39.7192H190.26L187.799 27.4973H185.897ZM188.726 12.7417L186.706 23.2743H190.86C191.394 23.2743 191.777 23.1915 192.009 23.0259C192.247 22.8272 192.417 22.4628 192.519 21.9329L194.024 14.0831C194.125 13.5532 194.092 13.2054 193.924 13.0398C193.761 12.841 193.413 12.7417 192.88 12.7417H188.726Z" fill="#E2E8F0"/>
<path d="M213.43 23.7215L217.569 39.7192H211.163L209.315 28.7394L203.206 39.7192H197.05L207.074 23.7215L203.411 8.36963H209.867L211.239 18.7036L216.573 8.36963H222.779L213.43 23.7215Z" fill="#E2E8F0"/>
</g>
<defs>
<clipPath id="clip0_81_38">
<rect width="221" height="52" fill="white"/>
</clipPath>
</defs>
</svg>
